<svg width="320" height="60" viewBox="0 0 320 60" fill="none" xmlns="http://www.w3.org/2000/svg">
<path d="M5 5H25L40 55H20L5 5Z" fill="#4ECCA3"/>
<path d="M35 5H55L40 55H20L35 5Z" fill="#36B5A0"/>
<path opacity="0.8" d="M20 20H40L30 42L20 20Z" fill="#2B4C7E"/>
<path d="M5 5H25L20 20L5 5Z" fill="#3DD9A0"/>
<path d="M35 5H55L40 20L35 5Z" fill="#2B9E8C"/>
<path d="M98.8711 19.793L90.1875 45H83.7539L75.1758 19.793H81.293L86.5488 37.3359C86.8301 38.2852 87 39.123 87.0586 39.8496H87.1641C87.2461 39.0645 87.4277 38.2031 87.709 37.2656L92.9297 19.793H98.8711ZM120.896 19.793L112.688 36.0352V45H107.01V36.1406L99.0117 19.793H105.498L109.559 29.1973C109.629 29.373 109.822 30.0586 110.139 31.2539H110.209C110.361 30.4102 110.543 29.748 110.754 29.2676L114.885 19.793H120.896ZM141.902 45H121.6V41.7305L134.52 24.416H122.531V19.793H141.867V22.9746L129.229 40.3945H141.902V45ZM156.281 45.4395C152.672 45.4395 149.73 44.2676 147.457 41.9238C145.184 39.5684 144.047 36.5039 144.047 32.7305C144.047 28.7461 145.201 25.5234 147.51 23.0625C149.818 20.6016 152.877 19.3711 156.686 19.3711C160.283 19.3711 163.189 20.5488 165.404 22.9043C167.631 25.2598 168.744 28.3652 168.744 32.2207C168.744 36.1816 167.59 39.375 165.281 41.8008C162.984 44.2266 159.984 45.4395 156.281 45.4395ZM156.527 24.2578C154.535 24.2578 152.953 25.0078 151.781 26.5078C150.609 27.9961 150.023 29.9707 150.023 32.4316C150.023 34.9277 150.609 36.9023 151.781 38.3555C152.953 39.8086 154.488 40.5352 156.387 40.5352C158.344 40.5352 159.896 39.832 161.045 38.4258C162.193 37.0078 162.768 35.0449 162.768 32.5371C162.768 29.9238 162.211 27.8906 161.098 26.4375C159.984 24.9844 158.461 24.2578 156.527 24.2578ZM195.621 45H189.891L179.502 29.1621C178.893 28.2363 178.471 27.5391 178.236 27.0703H178.166C178.26 27.9609 178.307 29.3203 178.307 31.1484V45H172.945V19.793H179.062L189.064 35.1387C189.521 35.8301 189.943 36.5156 190.33 37.1953H190.4C190.307 36.6094 190.26 35.4551 190.26 33.7324V19.793H195.621V45Z" fill="black"/>
</svg>
